<svg xmlns="http://www.w3.org/2000/svg" viewBox="0 0 640 380" role="img" aria-label="Contorno do estacionamento E3">
<rect width="640" height="380" fill="#102b3d"/><path d="M0 85H640M0 195H640M0 305H640M100 0V380M320 0V380M540 0V380" stroke="#b7d3c4" opacity=".08"/>
<path d="M547.718,257.913 L551.276,255.371 L551.784,242.664 L543.651,188.276 L532.469,146.087 L518.745,112.539 L498.921,93.732 L478.081,90.683 L464.357,81.533 L437.417,79.500 L418.093,79.836 L399.851,81.408 L399.272,81.553 L398.258,81.408 L397.802,81.256 L397.616,81.271 L397.578,81.273 L397.528,81.274 L397.451,81.270 L397.402,81.265 L397.364,81.260 L396.180,81.067 L396.151,81.062 L396.114,81.054 L396.057,81.039 L396.002,81.019 L395.948,80.994 L395.915,80.976 L395.889,80.962 L394.671,80.243 L378.963,80.517 L350.608,83.175 L350.331,83.870 L349.896,84.594 L349.462,85.318 L348.738,85.897 L348.159,86.331 L347.290,86.621 L346.566,86.766 L341.839,87.685 L329.966,90.264 L328.321,90.675 L325.136,91.544 L320.937,92.702 L319.634,93.137 L314.131,94.729 L313.986,94.874 L310.600,95.972 L298.596,100.406 L297.914,100.666 L294.728,102.114 L293.485,102.558 L280.714,108.564 L277.208,110.367 L277.063,110.367 L272.140,113.119 L267.217,115.870 L265.914,116.739 L261.280,119.200 L260.556,119.634 L257.722,121.090 L255.519,122.321 L255.506,122.328 L255.471,122.347 L255.457,122.354 L249.762,125.185 L249.117,125.571 L246.776,126.669 L242.790,128.650 L242.772,128.658 L242.726,128.680 L242.707,128.688 L239.313,130.118 L239.126,130.205 L238.356,130.522 L236.087,131.478 L233.769,132.521 L230.438,133.969 L228.556,134.838 L225.660,135.997 L224.067,136.576 L223.711,136.695 L221.156,137.771 L221.135,137.780 L221.078,137.801 L221.056,137.809 L220.592,137.966 L219.723,138.313 L218.565,138.748 L217.696,139.037 L216.972,139.182 L216.104,139.327 L215.379,139.182 L215.004,139.120 L214.559,139.120 L214.535,139.119 L214.504,139.118 L214.457,139.114 L214.426,139.111 L214.402,139.108 L213.202,138.926 L213.171,138.921 L213.133,138.913 L213.073,138.898 L213.015,138.877 L212.959,138.850 L212.906,138.819 L212.856,138.782 L212.825,138.757 L212.802,138.737 L212.075,138.081 L208.174,139.988 L169.544,153.203 L126.338,159.303 L99.398,168.452 L88.216,181.668 L88.216,200.983 L89.741,225.890 L98.890,248.763 L112.614,266.046 L126.846,275.195 L156.328,289.427 L169.035,308.234 L185.809,324.500 L547.718,257.913 Z M284.419,115.081 L287.952,114.829 L288.213,114.711 L288.265,114.806 L291.535,114.573 L331.183,187.768 L329.092,189.054 L330.493,191.599 L330.204,191.744 L323.977,192.902 L323.254,191.744 L323.254,191.599 L282.566,117.463 L284.996,116.183 L284.419,115.081 Z M335.251,213.370 L328.466,201.011 L328.756,200.866 L334.982,199.707 L335.307,200.358 L336.774,199.967 L380.488,281.803 L373.880,285.361 L335.251,213.370 Z" fill="#d5e6b0" fill-rule="evenodd" stroke="#f4f8e9" stroke-width="2"/>
<rect x="25" y="22" width="62" height="48" rx="12" fill="#f8fbf0"/><text x="56" y="54" text-anchor="middle" font-family="Arial,sans-serif" font-size="27" font-weight="700" fill="#193e35">E3</text>
<text x="103" y="45" font-family="Arial,sans-serif" font-size="19" fill="#ffffff">ESTACIONAMENTO</text><text x="103" y="66" font-family="Arial,sans-serif" font-size="13" fill="#b5c8ce">Parque Novo Mato Grosso</text>
<text x="25" y="356" font-family="Arial,sans-serif" font-size="13" fill="#b5c8ce">Contorno da planta · alturas não representadas</text></svg>